<svg xmlns="http://www.w3.org/2000/svg" id="_圖層_1" data-name="圖層 1" viewBox="0 0 504 512"><defs><style>.cls-4,.cls-5{fill:none;stroke-linecap:round;stroke-linejoin:round}.cls-8{fill:#fcfbf9}.cls-4{stroke:#ca8e78}.cls-10{fill:#fefef6}.cls-12{fill:#000002}.cls-4{stroke-width:3.19px}.cls-5{stroke:#a5baa8;stroke-width:2.55px}.cls-20{fill:#d77758}</style></defs><g id="_生成式物件" data-name="生成式物件"><path d="M383.11 167.54c-1.57-2.51-.57-8.08-4.47-8.29.64-1.32.63-4.54 3.51-5.74 10.52-4.39 15.22 11.75 10.4 18.5 8.45 15.71 16.01 32 24.24 47.85l-2.26 2.46c-9.3-18.02-18.6-36.04-27.89-54.07-1.03-.97-2.21-1.26-3.54-.71Z" class="cls-20"/><path d="M383.11 167.54c-2.27.95-6.67 13.54-7.66 16.27-.14.39 1.09.18 1.28.64-5.01-.66-4.87 8.79-9.7 7.34 1.67-7.05 7.46-14.25 9.06-21.05.04-.17-.79.25 0-2.23.72-2.27.86-5.78 2.55-9.25 3.89.21 2.9 5.78 4.47 8.29Z" style="fill:#fefff7"/><path d="M334.66 270.27c46.41-3.15 99.19 1.5 145.43 6.37-17.46 97.13-168.24 96.16-188.21.96 1.85-1.51 2.96-1.59 5.11-2.15 8.41-2.19 25.37-3.84 34.45-4.55.23-.02.41-.62.64-.64.85-.06 1.73.07 2.59.02Z" class="cls-20"/><path d="M446.28 309.18c-6.36 7.67-14.1 17.35-21.05 24.24-5.11 5.07-3.33 1.93-7.02 3.19l-5.74-9.19c17.69-9.13 16.39-5.94 27.82-23.35 3.83-.59 3.72 3.09 6 5.1Z" class="cls-10"/><path d="M446.28 309.18c-2.27-2.01-2.16-5.69-6-5.1 2.9-4.42 4.33-10.04 9.19-13.14 1.47-.94 8.19-1.5 8.93-.84 2.96 2.62-4.03 8.1-5.74 10.47-1.22 1.69-2.26 5.23-3.19 6.38-1.2 1.48-.85-.59-3.19 2.23ZM412.46 327.43l5.74 9.19c-.88.3-.74 1.63-1.6 1.91-.67.22-12.69 3.13-13.4 3.19-7.39.61-4.05-1.61-4.15-2.23-.02-.14-2.14-.53-1.43-2.51 1.85-5.18 10.58-7.35 14.83-9.55Z" class="cls-8"/><path d="M108.77 358.31c-.45-3 2.02-6.6 1.28-9.57-2.02-8.09-9.45-8.67-15.31-11.74-17.26-9.04-16.28-6.68-27.43-23.35-.14-.21-.25-.43-.38-.64-3.05-4.65-4.02-9.35-9.19-12.76-4.1-2.71-6.35-.58-10.21-.64-5.82-.08-10.85-.32-16.59 1.28-1.73-4.53-3.45-9.1-3.83-14.04.36 0 5.07-2.29 6.7-2.55 7.82-1.27 21.51 1.18 27.12-5.74.19-.23.46-.4.64-.64l3.83 3.85c48.67-1.72 93.92-2.8 142.28 4 0-3.27 5.07-1.89 5.1.72l1.91.27c-12.28 51.37-54.44 76.07-105.91 71.55Z" class="cls-20"/><path d="M47.52 299.61c-2.51 3.9 3.87 6.38 5.74 8.61s3.33 6.33 4.47 7.66c.6.7 1.69-.32 3.02 1.24.14.16.27.33.4.49.28.33.54.67.82 1 6.38 7.53 12.66 16.78 19.37 23.74 4.11 4.26 2.8 2.35 7.66 4.47 5.45 2.38 18.08 8.52 21.05 1.91.74 2.97-1.72 6.57-1.28 9.57-36.27-3.19-64.78-23.3-77.84-57.42 5.74-1.6 10.77-1.36 16.59-1.28Z" style="fill:#f9fafc"/><path d="M123.11 155.32c1.98 12.87 5.45 22.02 10.41 33.91 12.29 29.43 28.1 57.16 42.62 85.49l-2.68 1.28c-15.97-35.21-36.7-69.49-51.93-105.27-1.35 2.24-3.28-.4-5.42 0-1.95.37-4.24 3.83-7.46 2.55.47-1.67 1.22-1.57.77-3.83-.32-1.61-2.22-2.31-2.55-3.51-1.04-3.82 2.06-7.71 4.47-10.41 3.51-.26 9.14.11 11.78-.21Z" class="cls-20"/><path d="M67.3 313.65c11.15 16.67 10.17 14.31 27.43 23.35l-5.74 9.83c-4.86-2.12-3.55-.2-7.66-4.47-6.7-6.96-12.98-16.21-19.37-23.74-.28-.33-.54-.67-.82-1 2.35-2.89 2.01-3.62 5.76-4.61.14.21.25.43.38.64Z" class="cls-10"/><path d="M67.3 313.65c-.14-.21-.25-.43-.38-.64-3.75.99-3.41 1.72-5.76 4.61.28.33.54.67.82 1-.28-.33-.54-.67-.82-1-.14-.16-.27-.33-.4-.49-1.33-1.56-2.42-.54-3.02-1.24-1.13-1.32-2.61-5.45-4.47-7.66s-8.25-4.71-5.74-8.61c3.86.05 6.11-2.07 10.21.64 5.17 3.41 6.14 8.11 9.19 12.76.14.21.25.43.38.64ZM110.05 348.74c-2.98 6.61-15.6.46-21.05-1.91l5.74-9.83c5.87 3.07 13.29 3.65 15.31 11.74Z" class="cls-8"/><path d="M253.42 104.71c.19-.1.31-.32.5-.43 5.39 3.1 14.3 1.01 21.05 1.38s13.54 1.58 20.1 2.55l.64 10.21c-10.2-1.78-19.7-5.3-29.03 1.91l1.6 2.55c-6.81 2.29-10.32 12.01-17.55 12.76-10.28 1.06-11.47-6.42-18.18-8.93.95-5.93-9.9-6.43-14.04-6.38-4.93-3.25-7.11-.53-6.38-8.29 4.82-1.15 12.88-2.52 16.91-3.83.7-.23 3.62-2.03 3.51-3.19.69.43 7.64 2.17 8.95 2.14 2.05-.05 10.31-1.55 11.93-2.45Z" class="cls-12"/><path d="M212.13 112.04c-.73 7.76 1.45 5.04 6.38 8.29-22.29.26-62.13 20.88-86.45 26.8-12.83 3.12-18.65 2-30.31 3.19l-3.19-10.21c32.28.13 80.16-20.09 113.57-28.07ZM388.22 127.35c.17 3.71-.31 7.69-2.55 10.85-.43-.02-3.32 1.29-3.51 1.28-27.9-2.77-57.92-16.07-86.45-21.05l-.64-10.21c30.71 4.57 62.18 18.97 93.15 19.14Z" class="cls-20"/><path d="M218.51 120.33c4.14-.05 14.98.45 14.04 6.38-22.19-8.31-82.69 25.4-109.43 28.61-2.64.32-8.28-.05-11.78.21-4.24.32-13.39.55-17.87.52-1.38-3.3 6.19-5.53 8.29-5.74 11.65-1.19 17.47-.07 30.31-3.19 24.32-5.91 64.16-26.54 86.45-26.8Z"/><path d="M393.96 143.94c1.12-2.99-6.56-5.67-8.29-5.74 2.24-3.16 2.72-7.14 2.55-10.85 4.68.03 10.41.11 14.99-.64 6.37-1.04 26.82-11.51 29.03 1.6 2.47 14.63-30.06 15.33-38.28 15.63ZM98.56 140.11l3.19 10.21c-2.1.21-9.67 2.44-8.29 5.74-9.28-.06-30.41-1.15-36.37-9.25-4.32-5.87.79-12.08 6.7-13.08 6.78-1.15 23.86 6.34 34.77 6.38Z" class="cls-12"/><path d="M295.71 118.42c28.53 4.99 58.55 18.28 86.45 21.05.19.02 3.08-1.29 3.51-1.28 1.73.07 9.41 2.75 8.29 5.74-9.39.35-13.85.9-23.29-.64-24.81-4.03-80.94-27.62-102.4-20.42l-1.6-2.55c9.33-7.21 18.83-3.7 29.03-1.91Z"/><path d="M239.56 60.36c1.6 3.88 1.99 12.71 1.28 16.91s-6.85 10.39-7.02 12.12c-1.03 10.49 10.45 15.91 18.5 9.25l-.32 1.91 3.82 1.15c-.87.66-1.26 2.2-1.9 2.58-.19.11-.31.33-.5.43-1.61.89-9.88 2.4-11.93 2.45-1.31.03-8.26-1.71-8.95-2.14-16.22-10.06-4.71-36.04 7.02-44.66Z" class="cls-20"/><path d="M245.94 58.44c.51 7.62.28 15.05 3.83 22.01 1.16 2.28 5.73 5.36 6.38 8.93.49 2.71-1.79 7.57-3.83 9.25-8.05 6.66-19.53 1.24-18.5-9.25.17-1.74 6.34-8.12 7.02-12.12.71-4.2.33-13.03-1.28-16.91 3.02-2.22.49-3.08 5.12-2.11.41.08.88.06 1.26.2Z"/><path d="m255.82 101.7-3.82-1.15.32-1.91c2.04-1.68 4.32-6.54 3.83-9.25-.65-3.57-5.22-6.66-6.38-8.93-3.55-6.96-3.31-14.4-3.83-22.01 8.38 3.06 18.98 15.92 20.54 24.88s-4.04 13.37-10.67 18.37Z" class="cls-20"/><path d="M241.16 139.47c2.03-.59 15.97.01 18.5.64 2.32.57 5.61 4.38 9.25 4.15 2 79.1 2.64 158.26 5.1 237.34.09 2.98-.96 17.64-.64 18.5.29.78 2.62 1.34 3.19 2.55.81 1.75 1.27 6.92 2.23 7.34 8.61 3.77 25.7-7.67 34.13 4.15 2.06 2.89 2.18 7.29 4.15 9.25 3.97 3.96 11.7-.58 17.55 7.98 1.93 2.82 7.5 19.39 4.79 20.74-44.19.39-88.53 3.08-132.71 3.19-14.66.04-19.3 1.85-14.36-16.27 4.38-16.07 13.25-7.9 20.1-13.08 2.79-2.11 2.61-6.38 4.15-8.61 7.26-10.55 25.21-1.16 27.43-11.48 1.97-9.16.23-39.79 0-51.04-1.31-64.68-8.65-131.44-8.29-195.87.03-5.28-1.33-17.49 5.42-19.46Z" style="fill:#fefefe"/><path d="M268.91 314.28c-6.48 3.75-10.84 4.14-17.23 0-.76-5.74.31-6.41-6.38-8.93-.14-4.45-2.3-33.96-1.28-35.41.78-1.11 7.38.78 8.29-1.28l-7.02-111.65c-.64-1.46-5.61-1.17-6.06-1.6-.56-.53 1.75-11.71 2.55-12.12.74-.38 15.16.77 16.59 1.28 3.46 1.23 5.97 6.72 7.34 9.89.66 53.25 2.23 106.55 3.19 159.82Z" class="cls-20"/><path d="M207.02 449.54c-.48.06-.71.08-.64.64-2.18-.15-11.33.75-12.12-.96 0-4.04 2.3-16.48 6.06-18.18 4.83-2.19 53.43-.47 63.16-.64 10.37-.18 58.64-3.4 64.44-.64 3.72 1.77 11.43 14.97 7.66 17.86-1.91 1.47-11.8.2-14.67.64-2.59-1.21 3.62-12.73-7.02-13.4-12.91-.81-88.11 4.05-99.53 7.02-4.37 1.14-5.88 3.59-7.34 7.66ZM294.75 411.9c5.36-.1 13.39-1.36 16.27 4.15 4.31 8.24-1.03 9.06-7.98 9.89-25.8 3.1-55.48-1.04-81.67.64l-3.51-2.87c-.67-6.68 5.17-8.57 10.53-9.25 17.4-2.22 47.87-2.22 66.35-2.55Z" class="cls-12"/><path d="M251.68 314.28c2.93 22.26.23 47.33 1.28 69.86 1.28 3.71 14.55 6.94 15.31 11.17-4.61-1.82-6.89-3.85-12.44-1.91-4.41 1.54-5.26 6.77-8.61 9.25 1.6-32.41-.87-64.9-1.91-97.3 6.69 2.53 5.62 3.2 6.38 8.93Z"/><path d="M257.11 395.95c9.84-1.83 13.67 13.43 10.85 14.67-2.45-.58-15.25 1.01-16.27-.32-2.72-3.56.13-13.37 5.42-14.36Z" class="cls-10"/><path d="M206.38 450.18c-.07-.55.16-.58.64-.64 5.02-.59 11.25-.08 16.27.64-5.84 1.28-11.15.38-16.91 0Z" style="fill:#fdfef9"/><path d="M268.91 314.28c.49 27.1 1.73 54.21 1.28 81.35-1.32 1.97-1.68-.23-1.91-.32-.77-4.23-14.04-7.46-15.31-11.17-1.05-22.53 1.65-47.6-1.28-69.86 6.39 4.14 10.75 3.75 17.23 0Z" style="fill:#684539"/><path d="M260.62 365.32c4.89 2.21 5.23 16.1-2.23 12.76-1.26-.56-1.3-8.39-.96-9.25.84-2.08 3.09-2.04 3.19-2.23.16-.3-.13-.86 0-1.28Z" style="fill:#768c5e"/><path d="M65.38 281.77c48.67-1.72 93.92-2.8 142.28 4l5.1.72 1.91.27 1.9.27M244.68 58.24c.41.08.88.06 1.26.2 8.38 3.06 18.98 15.92 20.54 24.88s-4.04 13.37-10.67 18.37c-.87.66-1.26 2.2-1.9 2.58-.19.11-.31.33-.5.43-1.61.89-9.88 2.4-11.93 2.45M170.58 278.43l-47.1-96.8c6.46 31.71 9.51 64.67 8.61 96.9M111.33 155.53c3.51-.26 9.14.11 11.78-.21 1.98 12.87 5.45 22.02 10.41 33.91 12.29 29.43 28.1 57.16 42.62 85.49.83 1.62 1.52 3.27 1.96 5.03" class="cls-4"/><path d="M24.55 285.57c.84.21 1.94 1.28 2.55 1.28" style="stroke:#ca8e78;stroke-width:5.1px;fill:none;stroke-linecap:round;stroke-linejoin:round"/><path d="M58.61 298.92c4.23 2.61 6.41 7.36 8.62 11.52 2.3 3.87 4.97 7.66 7.62 11.26 3.52 5.16 8.49 7.81 13.99 10.48 2.33 1.15 5.88 3.07 8.15 4.12 4.07 1.8 9.54 3.24 12.43 7.33 1.05 1.43 1.74 3.07 2.18 4.71a1.593 1.593 0 1 1-3.09.77c-1.4-6.2-7.47-7.61-12.82-9.91-1.51-.68-2.84-1.41-4.2-2.1-4.07-2.14-8.41-4.06-12.34-6.64-5.28-3.63-8.62-9.34-12.18-14.46-3.54-4.65-5.07-11.22-10.12-14.43-2.76-1.57-9.23.77-10.6-.94-2.5-3.86 6.37-3.75 8.12-3.32 1.53.27 2.94.81 4.24 1.59Z" class="cls-20"/><path d="M79.73 343.91c-3.87-4.04-7.26-8.37-10.6-12.67-3.33-4.33-6.61-8.55-10.07-12.67-.8-.94-.68-2.35.27-3.15a2.25 2.25 0 0 1 3.14.25c7.15 8.36 13.21 17.48 20.49 25.13 1.61 3.21.95 5.1-3.22 3.1 0 0 4.16 2 0 0Z" style="fill:#fefffa"/><path d="M110.03 169.33c.11.64.25 1.34.05 2.14-.25.82-.6 1.22-.75 1.75-1.07 3.57-2.43 7.16-3.94 10.57-6.01 13.73-13.59 26.75-19.96 40.27-3.63 7.83-7.86 19.63-11.08 27.78-3.54 8.68-6.68 17.67-11.73 25.63l-.54.8c-.28.37-.58.55-.67.68-.2.29-.6.37-.89.17-.79-.65.26-1.27.54-1.62l.51-.76c4.97-7.87 8.08-16.77 11.59-25.37 3.26-8.26 7.42-19.9 11.11-27.86 8.25-17.45 18.48-34.05 24.58-52.38.12-.42.05-.99-.07-1.57.17-.38.49-1.13.62-1.42.15.28.47.88.63 1.17Z" style="fill:#c9c9db"/><path d="M122.17 170.09c14.03 34.62 35.44 69.29 51.24 104.28l.39.85.2.42c.06.13.15.35.2.51.2.71.29 1.06.6 1.21.24.49.79 1.6.99 2.01-.74-.49-2.14-.91-2.5-1.88-.29-.92-.61-1.73-1.04-2.59-16.09-35.14-36.13-68.33-51.31-103.92a.742.742 0 0 1-.05-.25v-.64c-.01-.56-.1-1.76.2-2.17 0-.02.39.78 1.07 2.17Z" style="fill:#c1cfce"/><path d="M260.62 366.6c.16-.3-.13-.86 0-1.28 1.65-5.27-1.24-19.84 0-26.16" style="stroke:#fdfdf9;stroke-width:3.83px;fill:none;stroke-linecap:round;stroke-linejoin:round"/><path d="M332.07 270.26c.85-.06 1.73.07 2.59.02 46.41-3.15 99.19 1.5 145.43 6.37l.63.08M331.43 270.9c-9.07.71-26.04 2.36-34.45 4.55M438.91 269.55l-24.37-47.24c-9.3-18.02-18.6-36.04-27.89-54.07M372.23 267.71l4.54-81.03" class="cls-5"/><path d="m377.18 170.55-.64.64.17-.31c-.95 3.86-2.84 7.28-4.6 10.67-1.77 3.38-3.58 6.77-4.46 10.38-.02.16-39.43 77.83-39.48 77.98-.16.31-.54.44-.86.28a.642.642 0 0 1-.28-.86c0 .03 39.63-78.3 39.38-77.7 1.94-7.7 7.22-13.79 9.06-21.05.03-.12.09-.23.17-.31l.64-.64c.76-1.58 1.17-2.45 1.16-2.43.37.9 0 2.4-.26 3.33Z" style="fill:#030226"/><path d="M390.13 169.46c1.64-.03 1.85 1.49 2.42 2.55 8.45 15.71 16.01 32 24.24 47.85 8.72 16.77 17.09 33.99 27.56 49.76" style="fill:none;stroke-linecap:round;stroke-linejoin:round;stroke:#000;stroke-width:1.28px"/><path d="M397.63 336.97c1.85-5.18 10.58-7.35 14.83-9.55 17.69-9.13 16.39-5.94 27.82-23.35 2.9-4.42 4.33-10.04 9.19-13.14 1.47-.94 8.19-1.5 8.93-.84" style="stroke:#d77758;stroke-width:3.19px;fill:none;stroke-linecap:round;stroke-linejoin:round"/><path d="M448 310.61c-6.83 8.22-13.49 16.66-21.2 24.41a338.9 338.9 0 0 1-10.14 6.29c1.38-1.86 5.22-7.06 6.99-9.46 7.65-7.76 14.69-16.44 21.65-25.09.06-.11.11-.05.35.04.8.4 2.84 1.44 2.93 2.54-.06.3-.44.98-.58 1.27Z" style="fill:#fefff9"/></g></svg>